PathFileType	4	(X/Y/Z)	PS_ngait_og_ss3.trc	
DataRate	CameraRate	NumFrames	NumMarkers	Units	OrigDataRate	OrigDataStartFrame	OrigNumFrames	
120.00	120.00	6	39	mm	120.00	545	130	
Frame#	Time	Sternum			Neck			RShoulder			LShoulder			Xiphoid			Thoracic			RAsis			LAsis			RPsis			LPsis			LThighSuperior			LThighInferior			LThighLateral			LShankSuperior			LShankInferior			LShankLateral			RThighSuperior			RThighInferior			RThighLateral			RShankSuperior			RShankInferior			RHeel			RToe			RMidfootMedial			RMidfootLateral			RHindfoot			RMidfootSuperior			RToeMedial			RToeLateral			LHeel			LToe			LMidfootMedial			LMidfootLateral			LHindfoot			LMidfootSuperior			LToeMedial			LToeLateral			Sacral			RShankLateral			
		X1	Y1	Z1	X2	Y2	Z2	X3	Y3	Z3	X4	Y4	Z4	X5	Y5	Z5	X6	Y6	Z6	X7	Y7	Z7	X8	Y8	Z8	X9	Y9	Z9	X10	Y10	Z10	X11	Y11	Z11	X12	Y12	Z12	X13	Y13	Z13	X14	Y14	Z14	X15	Y15	Z15	X16	Y16	Z16	X17	Y17	Z17	X18	Y18	Z18	X19	Y19	Z19	X20	Y20	Z20	X21	Y21	Z21	X22	Y22	Z22	X23	Y23	Z23	X24	Y24	Z24	X25	Y25	Z25	X26	Y26	Z26	X27	Y27	Z27	X28	Y28	Z28	X29	Y29	Z29	X30	Y30	Z30	X31	Y31	Z31	X32	Y32	Z32	X33	Y33	Z33	X34	Y34	Z34	X35	Y35	Z35	X36	Y36	Z36	X37	Y37	Z37	X38	Y38	Z38	X39	Y39	Z39	

33	0.267	496.78677	1457.80750	208.19652	331.35855	1552.47046	203.42780	374.37082	1545.67981	367.44275	367.18637	1537.66052	66.50732	532.95984	1299.07336	224.23466	255.28488	1333.39966	216.82057	446.06262	1030.86536	365.82114	467.52679	1028.75696	91.85684	262.22629	1054.29639	272.60822	264.64368	1045.33716	168.44997	409.91669	850.21210	53.26637	452.81253	618.18311	88.76139	517.73505	728.94861	127.72362	455.28479	380.44748	93.52932	424.80420	183.26842	135.97961	477.03064	278.09705	166.81395	427.76205	834.33209	412.47934	473.23700	606.73010	421.90042	529.91797	766.70856	365.02927	407.25180	487.02115	428.34982	245.40944	298.04382	377.68524	113.69111	269.20947	311.29358	334.84937	47.63709	343.78720	252.90199	97.35683	284.09439	234.94890	93.79429	398.20013	199.75708	130.36539	386.12070	258.77896	165.50620	338.95248	289.69977	71.06951	291.84070	279.50018	67.44991	394.75516	333.84628	65.46770	196.48814	645.15771	59.84418	158.20734	549.38745	36.51973	219.29724	540.67145	32.52790	102.02898	486.36118	30.05039	115.00960	521.46521	97.20625	169.44437	591.43542	37.37189	211.63783	584.89990	42.41356	107.94931	263.43497	1049.81677	220.52908	378.09207	358.61664	350.65424 
34	0.275	504.75858	1458.94702	207.78604	339.47955	1553.60315	203.62067	382.73206	1546.40076	367.38605	374.83817	1539.23889	66.56148	540.96466	1300.16931	223.77043	263.27399	1334.45422	216.82788	455.20291	1032.55078	365.70441	474.98474	1030.28296	91.25436	270.77814	1055.60107	273.57263	272.39594	1046.26514	168.74303	416.10370	851.01648	52.42196	457.14404	617.69641	89.56731	522.48114	728.72388	128.14839	457.24277	381.00879	93.45917	425.42361	183.38698	136.17841	477.84549	278.25592	166.67790	434.56750	836.96191	415.22110	486.57745	609.19415	421.87485	541.26868	770.04999	365.53830	422.99734	488.00751	428.93213	265.89737	294.75223	378.50705	134.35411	261.82471	312.54816	362.49219	47.74515	344.53302	279.11569	94.86916	285.07883	261.88837	90.96458	399.29245	225.20999	126.26305	387.43893	283.07455	163.38309	339.64285	316.52994	69.74340	292.67212	306.75998	66.10484	395.62759	333.95172	65.60838	196.28639	645.19330	59.76102	158.22952	549.41644	36.47774	219.38530	540.72968	32.56956	102.09238	486.70090	29.87407	115.47209	521.60455	97.22677	169.51111	591.48669	37.30711	211.68346	584.89099	42.39881	108.00119	271.58704	1050.93311	221.15782	396.76627	359.16843	351.24124 
35	0.283	512.87360	1459.97900	207.63316	347.57245	1554.66895	203.85530	391.15311	1547.09839	367.35095	382.52924	1540.68274	66.79921	549.16400	1301.20911	223.31204	271.33612	1335.47595	217.00058	463.94922	1033.80945	365.68198	482.53983	1031.72449	90.91640	279.11737	1056.70093	274.33630	280.18622	1047.16687	169.12029	422.31686	851.69647	51.45447	461.76761	617.03363	90.63752	527.27319	728.53467	128.43964	459.05484	381.02051	93.68590	426.05853	183.46739	136.35690	478.70248	277.97101	166.58275	441.34647	839.34778	417.77557	499.84268	611.42950	421.71664	552.30811	773.30408	365.90067	438.82629	488.57083	429.41290	287.41269	291.07190	379.07599	155.18561	253.82449	313.94357	389.11752	44.97007	343.31732	306.18167	92.36224	286.29483	289.46222	87.56640	400.18414	251.35847	121.73334	388.59146	309.87076	160.80333	340.90613	342.53836	67.70509	292.33200	334.08011	62.78241	395.35016	333.88400	65.39430	196.07559	645.28052	59.63546	158.30899	549.44293	36.43208	219.40167	540.85577	32.60965	102.22131	486.85181	29.89231	115.72536	521.71375	97.20718	169.66138	591.51898	37.21611	211.72220	584.98450	42.37157	108.03920	279.65179	1051.93384	221.72830	414.76059	358.81308	350.83362 
36	0.292	521.17133	1460.84131	207.67458	355.75977	1555.71936	204.13063	399.56204	1547.51440	367.40659	390.27176	1542.03528	67.06426	557.33350	1302.33057	222.67104	279.25949	1336.40454	217.23235	472.28311	1034.81836	365.29163	489.90887	1032.49988	90.56551	287.13474	1057.59204	274.55783	287.83029	1048.05652	169.45657	428.54861	852.24188	50.39068	466.67035	616.21686	91.93530	532.13062	728.44537	128.91028	461.36453	381.29282	93.58574	426.60895	183.79189	136.69788	480.45999	278.66248	167.22560	448.78516	841.22876	419.34946	512.81543	613.59753	421.36816	563.44458	776.68634	366.34830	454.62796	488.70761	429.72586	308.65372	287.25400	380.25412	176.67831	245.04469	315.46490	417.13644	43.95116	343.56516	333.55344	89.49413	287.12390	317.64282	84.24266	400.94888	278.38129	116.53786	389.46548	335.66687	158.23735	341.42468	369.95566	65.78288	292.73843	361.94308	60.70324	395.78461	333.93103	65.56626	196.22639	645.46674	59.56451	158.42802	549.34088	36.55925	219.60042	540.79736	32.72296	102.24043	486.85107	29.99168	115.88543	521.97906	97.35471	169.84639	591.62207	37.28782	211.81717	585.15704	42.43325	108.12933	287.48251	1052.82434	222.00720	432.27182	357.85513	350.02719 
37	0.300	529.02594	1461.69189	207.22649	363.92657	1556.55518	204.41676	407.92609	1547.81299	367.54224	397.80560	1543.23499	67.34933	565.40820	1303.08447	222.38313	287.17764	1337.25220	217.57056	480.37790	1035.46802	364.89279	497.30981	1033.13757	90.39922	295.01224	1058.35950	274.62939	295.49246	1048.91846	169.91385	434.78925	852.64606	49.26197	471.83276	615.26776	93.42274	536.91620	728.28156	129.26740	463.16461	382.12848	94.42884	427.02737	183.95830	136.85115	481.68518	279.22321	167.65082	457.08972	842.68970	420.10992	525.27106	615.50073	420.90646	574.14545	780.07068	366.83377	470.39044	488.57993	429.92664	329.78809	282.37741	380.58575	198.71817	235.99521	317.14352	445.81079	42.95811	343.31918	361.34299	86.33011	287.79562	346.44870	80.45817	401.63409	305.79593	111.47533	390.34482	361.64828	155.28683	341.85724	397.81772	63.74178	292.81464	390.55582	58.32203	395.89911	334.14059	65.93710	196.58418	645.60730	59.50217	158.57176	549.51862	36.66574	219.74010	540.81763	32.93810	102.50613	486.75098	30.20506	116.01755	522.07751	97.46658	169.96454	591.74231	37.29501	211.96942	585.23260	42.55113	108.28992	295.25235	1053.63892	222.27162	449.98685	356.73001	349.18759 
38	0.308	537.07758	1462.32227	206.96640	372.09210	1557.20898	204.71266	416.30267	1548.04602	367.67725	405.44254	1544.23059	67.69604	573.48602	1303.53210	221.82495	295.13907	1337.94006	217.88023	488.43961	1036.13135	364.60196	504.58698	1033.68335	90.18235	302.82639	1059.04163	274.85144	303.02472	1049.63110	170.30959	441.02713	852.90717	48.10405	477.22961	614.20831	95.06114	541.73236	728.10419	129.52107	464.14053	381.90921	93.78907	427.23996	184.11105	136.81891	483.05957	279.51801	167.86229	466.17191	843.91913	420.55273	537.51050	617.07501	420.25885	584.64819	782.71533	366.83557	485.91568	488.26953	429.92722	351.36105	277.43115	381.17126	221.37315	226.42197	318.76160	477.00922	44.42488	344.04471	389.35809	83.28385	288.24265	375.54941	76.95770	402.19849	333.58804	106.03246	391.02795	386.90155	152.04216	342.51563	427.76184	62.38719	293.66559	421.21725	56.99461	396.79950	333.95767	66.07365	196.72508	645.62378	59.46935	158.62398	550.00134	37.06881	219.99463	540.99261	32.88934	102.59787	486.83466	30.29404	115.91425	521.92639	97.63158	169.84300	591.90094	37.54471	212.28094	585.07019	42.38827	108.60201	302.92557	1054.33630	222.58051	468.93729	356.32077	349.24109 
